<svg version="1.0" xmlns="http://www.w3.org/2000/svg"  width="512.000000pt" height="512.000000pt" viewBox="0 0 512.000000 512.000000"  preserveAspectRatio="xMidYMid meet"> <g transform="translate(0.000000,512.000000) scale(0.100000,-0.100000)" fill="#000000" stroke="none"> <path d="M1 3953 c1 -755 5 -1140 11 -1088 12 105 51 298 83 409 291 1004 1165 1733 2205 1839 19 2 -490 5 -1132 5 l-1168 2 1 -1167z"/> <path d="M2865 5108 c105 -12 298 -51 409 -83 1000 -290 1733 -1169 1839 -2205 2 -19 5 490 5 1133 l2 1167 -1167 -1 c-755 -1 -1140 -5 -1088 -11z"/> <path d="M3436 4688 c-35 -63 -47 -122 -97 -467 -8 -55 -29 -99 -155 -326 -81 -145 -145 -267 -144 -271 1 -4 -2 -10 -7 -13 -20 -13 -146 -251 -176 -331 -25 -68 -61 -210 -54 -216 7 -8 152 151 188 206 37 55 197 336 339 595 43 77 87 158 99 180 12 22 32 48 44 58 12 11 36 31 52 45 17 15 89 77 161 139 105 90 137 123 162 171 18 33 32 64 32 68 0 5 -22 21 -49 37 l-49 27 -53 -55 c-29 -30 -64 -71 -77 -90 -28 -40 -31 -40 -58 -21 -21 16 -23 10 68 174 16 28 27 52 25 52 -5 0 -36 -50 -82 -135 -37 -68 -40 -70 -69 -57 l-24 11 29 86 c43 128 43 144 -6 172 -22 12 -45 23 -52 23 -7 0 -28 -28 -47 -62z"/> <path d="M2586 4528 c-32 -58 -38 -82 -71 -298 l-36 -234 -184 -331 c-192 -347 -261 -477 -293 -560 -21 -54 -55 -195 -49 -201 11 -11 169 172 214 246 42 71 311 549 407 725 25 46 42 65 107 120 248 209 281 241 314 300 19 34 35 66 35 71 0 5 -22 21 -49 37 l-49 27 -53 -55 c-29 -30 -64 -71 -77 -90 -28 -40 -31 -40 -58 -21 -21 16 -23 10 68 174 16 28 27 52 25 52 -5 0 -36 -50 -82 -135 -37 -68 -40 -70 -69 -57 l-24 10 35 106 c19 58 33 113 30 121 -6 14 -77 55 -96 55 -6 0 -26 -28 -45 -62z"/> <path d="M4496 2659 c-23 -67 -25 -94 -10 -106 11 -8 14 -25 12 -64 l-3 -54 -42 39 c-29 25 -43 33 -43 23 0 -8 20 -33 45 -55 43 -38 57 -62 35 -62 -5 0 -10 -7 -10 -15 0 -8 5 -15 10 -15 6 0 10 -10 10 -23 0 -17 -14 -34 -45 -56 -37 -26 -44 -36 -34 -47 13 -16 29 -10 29 11 0 13 29 35 44 35 3 0 6 -25 6 -55 0 -30 -3 -55 -7 -55 -3 0 -21 11 -39 25 -36 27 -44 30 -44 15 0 -6 20 -23 45 -38 45 -27 45 -27 45 -84 0 -48 -3 -59 -21 -68 -27 -15 -34 -7 -18 18 10 17 10 23 -4 37 -9 9 -17 21 -17 27 0 5 -7 8 -15 4 -9 -3 -15 0 -15 9 0 9 -21 66 -46 128 -51 125 -55 139 -58 184 -2 40 -30 70 -99 107 l-54 30 -79 -30 c-68 -26 -79 -33 -76 -51 3 -20 1 -21 -26 -11 -24 9 -40 7 -101 -17 -58 -23 -71 -32 -68 -47 6 -21 6 -21 -26 -9 -35 13 -173 -39 -169 -63 2 -13 -2 -15 -23 -10 -17 4 -51 -3 -99 -20 l-73 -27 2 -46 c1 -30 7 -50 18 -58 19 -14 129 -303 121 -317 -3 -5 -15 -6 -25 -3 -15 5 -30 -3 -56 -30 -37 -38 -39 -72 -4 -60 12 3 21 0 25 -10 3 -9 10 -14 15 -11 14 9 26 -13 50 -84 27 -84 38 -160 22 -160 -7 0 -11 -21 -11 -55 0 -52 -1 -55 -25 -55 -22 0 -25 4 -25 33 0 19 -2 36 -5 39 -3 3 -36 -1 -73 -8 -95 -19 -92 -20 -92 31 0 37 -3 45 -19 45 -10 0 -24 7 -31 15 -9 11 -33 15 -90 15 -57 0 -81 -4 -90 -15 -8 -9 -30 -15 -60 -15 -33 0 -50 5 -54 15 -4 12 -23 15 -84 15 -59 0 -83 -4 -92 -15 -7 -8 -23 -15 -36 -15 -23 0 -24 -2 -24 -80 0 -79 0 -80 -25 -80 -23 0 -25 4 -25 45 l0 45 -65 0 -65 0 0 65 c0 49 -4 67 -15 71 -11 5 -15 22 -15 63 0 51 -3 60 -33 89 -18 18 -36 32 -41 32 -4 0 -23 -12 -42 -27 -32 -27 -34 -31 -34 -90 0 -49 -3 -63 -15 -63 -12 0 -15 -14 -15 -70 l0 -70 -30 0 -30 0 0 100 c0 60 -4 100 -10 100 -5 0 -10 16 -10 35 0 28 -4 35 -20 35 -12 0 -20 7 -21 18 0 11 -2 12 -6 4 -3 -7 -16 -17 -29 -22 -15 -6 -24 -18 -24 -32 0 -13 -5 -102 -9 -198 -5 -96 -9 -190 -10 -207 -2 -57 -21 -36 -21 22 l0 55 -60 0 -60 0 0 139 0 139 -35 35 c-25 25 -35 44 -35 66 0 21 -5 31 -15 31 -9 0 -15 -9 -15 -22 0 -13 -7 -32 -15 -42 -14 -19 -15 -19 -34 -2 -11 10 -21 27 -23 37 -5 29 -23 28 -26 -2 -2 -14 -19 -41 -38 -60 l-34 -33 0 -143 c0 -89 -4 -143 -10 -143 -6 0 -10 -43 -10 -109 0 -63 -4 -112 -10 -116 -7 -4 -10 53 -10 164 0 102 -4 172 -10 176 -6 3 -10 50 -10 106 l0 99 -55 0 -55 0 0 79 0 78 -38 7 c-57 9 -188 7 -216 -4 l-26 -10 0 -135 c0 -128 -1 -135 -20 -135 -19 0 -20 -7 -20 -215 0 -137 -4 -215 -10 -215 -5 0 -10 20 -10 45 0 33 -4 45 -15 45 -18 0 -17 -3 -15 128 1 85 -1 103 -14 108 -10 4 -16 18 -16 35 0 26 -4 29 -30 29 -27 0 -30 -3 -30 -30 0 -23 -4 -30 -20 -30 -18 0 -20 7 -20 60 0 33 -4 60 -10 60 -6 0 -10 -27 -10 -60 0 -57 -1 -60 -25 -60 -24 0 -25 2 -25 70 0 56 -3 70 -15 70 -8 0 -15 7 -15 15 0 11 -12 15 -50 15 -38 0 -50 -4 -50 -15 0 -12 -14 -15 -65 -15 l-65 0 0 -155 0 -155 -25 0 c-24 0 -25 -2 -25 -75 0 -60 -3 -75 -15 -75 -11 0 -15 12 -15 44 0 41 -2 45 -27 48 l-28 3 -2 450 c-1 248 -2 474 -2 503 -1 51 -2 52 -31 52 -20 0 -30 5 -30 15 0 12 -19 15 -115 15 -96 0 -115 -3 -115 -15 0 -9 -10 -15 -26 -15 l-25 0 3 -437 c3 -393 5 -441 21 -470 10 -18 15 -33 12 -33 -10 0 -130 258 -169 361 -68 185 -124 414 -144 594 -6 52 -10 -333 -11 -1087 l-1 -1168 1168 1 c642 1 1154 4 1137 6 -78 9 -95 14 -88 26 5 9 3 9 -8 1 -8 -5 -18 -10 -24 -9 -45 5 -133 21 -137 24 -2 1 -18 4 -37 7 -84 11 -223 53 -215 66 3 4 -2 5 -11 2 -9 -4 -24 1 -34 10 -15 14 -20 14 -24 4 -4 -11 -6 -11 -6 0 -1 7 -6 10 -11 7 -6 -4 -35 5 -65 19 -29 14 -59 26 -66 26 -7 0 -32 11 -56 25 -23 14 -43 23 -43 20 0 -8 -97 43 -136 72 -17 13 -34 20 -39 15 -4 -4 -5 2 -1 13 6 15 4 17 -5 8 -9 -9 -18 -8 -38 5 -14 9 -28 20 -31 24 -3 4 -19 12 -35 18 -24 9 -27 13 -15 21 12 8 10 9 -6 4 -14 -4 -31 2 -50 18 -16 12 -41 31 -57 40 -15 10 -27 23 -27 29 0 6 12 1 27 -13 l28 -24 -24 27 c-19 22 -27 25 -38 16 -11 -9 -15 -7 -20 10 -3 12 -9 20 -13 17 -4 -3 -13 2 -20 10 -7 8 -18 15 -25 15 -7 0 -26 15 -41 33 -15 17 -28 30 -29 27 -2 -3 -29 21 -61 52 -58 59 -64 74 -14 38 15 -11 30 -17 34 -13 3 3 6 2 6 -3 0 -5 25 -7 55 -6 51 4 57 2 81 -28 39 -46 121 -90 169 -90 30 0 49 -8 74 -29 42 -36 114 -55 187 -49 30 3 54 2 54 -2 0 -4 32 -8 72 -9 39 -1 76 -5 82 -9 6 -3 26 -7 46 -9 136 -10 223 -26 266 -47 25 -13 59 -15 195 -11 90 2 173 5 184 6 11 1 45 1 75 0 31 -1 74 4 98 13 24 9 53 16 65 15 12 0 243 -3 512 -5 329 -2 504 0 531 7 23 6 56 24 74 41 l33 29 26 -23 c38 -35 96 -58 144 -58 24 0 49 -6 56 -12 11 -10 13 -10 7 0 -7 11 -3 13 37 16 6 1 14 3 17 7 9 9 80 51 80 46 0 -2 -19 -17 -42 -33 -63 -42 -81 -53 -100 -60 -10 -3 -18 -11 -18 -16 0 -5 -4 -6 -10 -3 -5 3 -10 3 -10 -2 0 -4 -13 -15 -29 -24 -22 -13 -32 -14 -41 -5 -8 8 -9 6 -4 -9 4 -11 4 -17 -1 -13 -4 4 -22 -3 -39 -15 -53 -38 -95 -57 -101 -47 -6 10 1 14 18 11 5 -1 6 3 2 8 -9 16 -35 1 -41 -25 -3 -13 -12 -24 -20 -24 -7 0 -28 -9 -46 -20 -18 -11 -39 -20 -46 -20 -7 0 -38 -12 -67 -26 -30 -14 -59 -23 -64 -20 -5 4 -12 0 -14 -6 -4 -10 -6 -9 -6 1 -1 11 -5 10 -21 -4 -10 -9 -26 -15 -35 -11 -9 3 -14 2 -11 -2 8 -13 -131 -55 -215 -66 -19 -3 -35 -6 -36 -7 -5 -3 -93 -19 -138 -24 -5 -1 -16 4 -24 9 -11 8 -13 8 -8 -1 7 -12 -10 -17 -88 -26 -16 -2 495 -5 1138 -6 l1167 -1 -2 1168 c0 642 -3 1151 -5 1132 -37 -365 -167 -753 -360 -1072 -19 -32 -38 -58 -43 -58 -15 0 -24 24 -11 28 7 2 24 15 37 29 19 19 22 28 13 33 -6 5 -13 25 -14 46 -2 31 -7 40 -26 44 -20 5 -33 31 -86 170 -59 154 -63 170 -61 240 1 41 -1 81 -5 87 -4 7 0 16 10 22 17 10 17 12 1 21 -14 9 -18 25 -18 81 0 38 6 78 12 89 10 16 10 24 0 40 -14 23 -16 153 -2 220 6 34 5 50 -6 67 -8 13 -14 47 -14 83 0 52 2 60 19 60 14 0 22 12 30 44 15 61 14 65 -14 76 -53 20 -75 22 -79 9z m-440 -356 c15 -43 40 -109 55 -148 15 -38 25 -73 22 -77 -12 -22 -31 -2 -47 50 -10 31 -33 97 -52 145 -32 83 -35 107 -14 107 4 0 20 -35 36 -77z m-167 -152 c38 -102 50 -146 42 -154 -6 -6 -12 -9 -15 -6 -2 2 -28 72 -59 156 -35 98 -50 154 -43 156 17 7 19 2 75 -152z m-223 2 c15 -43 40 -109 55 -148 26 -68 28 -85 8 -85 -9 0 -26 36 -33 69 -3 16 -6 24 -40 104 -8 21 -15 41 -14 45 0 4 -6 24 -15 44 -21 45 -21 48 -3 48 8 0 25 -31 42 -77z m-3119 0 c-4 -3 -10 -3 -14 0 -3 4 0 7 7 7 7 0 10 -3 7 -7z m-37 -23 c0 -5 -2 -10 -4 -10 -3 0 -8 5 -11 10 -3 6 -1 10 4 10 6 0 11 -4 11 -10z m77 -7 c-4 -3 -7 0 -7 7 0 7 3 10 7 7 3 -4 3 -10 0 -14z m-140 -50 c-4 -3 -10 -3 -14 0 -3 4 0 7 7 7 7 0 10 -3 7 -7z m150 0 c-4 -3 -10 -3 -14 0 -3 4 0 7 7 7 7 0 10 -3 7 -7z m-40 -30 c-4 -3 -7 0 -7 7 0 7 3 10 7 7 3 -4 3 -10 0 -14z m-120 -20 c-4 -3 -7 0 -7 7 0 7 3 10 7 7 3 -4 3 -10 0 -14z m163 7 c0 -5 -5 -10 -11 -10 -5 0 -7 5 -4 10 3 6 8 10 11 10 2 0 4 -4 4 -10z m-150 -34 c0 -3 -4 -8 -10 -11 -5 -3 -10 -1 -10 4 0 6 5 11 10 11 6 0 10 -2 10 -4z m80 -6 c0 -5 -4 -10 -10 -10 -5 0 -10 5 -10 10 0 6 5 10 10 10 6 0 10 -4 10 -10z m3970 -35 c0 -51 -11 -58 -26 -17 -12 34 -7 62 12 62 10 0 14 -13 14 -45z m-314 -15 c7 -19 26 -73 43 -119 17 -46 31 -86 31 -88 0 -1 -7 -3 -16 -3 -10 0 -14 6 -10 15 3 8 1 15 -4 15 -9 0 -22 37 -25 70 -1 8 -2 23 -3 33 -1 11 -7 15 -14 11 -7 -5 -9 -2 -5 9 3 8 0 17 -7 20 -6 3 -17 21 -23 42 -10 31 -9 36 4 33 9 -2 22 -19 29 -38z m-3699 23 c-4 -3 -10 -3 -14 0 -3 4 0 7 7 7 7 0 10 -3 7 -7z m-27 -53 c0 -5 -2 -10 -4 -10 -3 0 -8 5 -11 10 -3 6 -1 10 4 10 6 0 11 -4 11 -10z m3532 -52 c65 -176 69 -191 59 -201 -8 -8 -11 -3 -11 16 0 15 -4 27 -9 27 -12 0 -54 116 -47 129 4 5 1 13 -4 16 -15 10 -31 55 -24 67 9 14 15 4 36 -54z m-3422 18 c0 -3 -4 -8 -10 -11 -5 -3 -10 -1 -10 4 0 6 5 11 10 11 6 0 10 -2 10 -4z m-40 -26 c0 -5 -4 -10 -10 -10 -5 0 -10 5 -10 10 0 6 5 10 10 10 6 0 10 -4 10 -10z m75 0 c3 -5 1 -10 -4 -10 -6 0 -11 5 -11 10 0 6 2 10 4 10 3 0 8 -4 11 -10z m3213 -122 c50 -137 50 -139 35 -145 -8 -3 -13 3 -13 14 0 11 -4 23 -9 28 -5 6 -18 37 -29 70 -11 33 -27 76 -36 96 -14 34 -13 49 4 49 4 0 26 -51 48 -112z m-3478 88 c0 -3 -4 -8 -10 -11 -5 -3 -10 -1 -10 4 0 6 5 11 10 11 6 0 10 -2 10 -4z m120 0 c0 -3 -4 -8 -10 -11 -5 -3 -10 -1 -10 4 0 6 5 11 10 11 6 0 10 -2 10 -4z m150 -6 c0 -5 -2 -10 -4 -10 -3 0 -8 5 -11 10 -3 6 -1 10 4 10 6 0 11 -4 11 -10z m913 -17 c-29 -2 -77 -2 -105 0 -29 2 -6 3 52 3 58 0 81 -1 53 -3z m-1186 -20 c-4 -3 -10 -3 -14 0 -3 4 0 7 7 7 7 0 10 -3 7 -7z m80 0 c-4 -3 -10 -3 -14 0 -3 4 0 7 7 7 7 0 10 -3 7 -7z m1116 -10 c-23 -2 -64 -2 -90 0 -26 2 -7 3 42 3 50 0 71 -1 48 -3z m-1153 -13 c0 -5 -4 -10 -10 -10 -5 0 -10 5 -10 10 0 6 5 10 10 10 6 0 10 -4 10 -10z m1143 -27 c-29 -2 -77 -2 -105 0 -29 2 -6 3 52 3 58 0 81 -1 53 -3z m-1036 -10 c-4 -3 -10 -3 -14 0 -3 4 0 7 7 7 7 0 10 -3 7 -7z m-140 -20 c-4 -3 -10 -3 -14 0 -3 4 0 7 7 7 7 0 10 -3 7 -7z m1116 0 c-18 -2 -48 -2 -65 0 -18 2 -4 4 32 4 36 0 50 -2 33 -4z m2866 -141 c24 -64 44 -129 44 -144 0 -15 4 -25 8 -23 10 7 20 -25 12 -37 -3 -6 -1 -8 4 -5 6 4 13 -3 16 -15 7 -24 1 -38 -15 -38 -6 0 -9 3 -6 6 4 3 -2 24 -13 47 -10 23 -19 52 -19 65 0 12 -4 22 -8 22 -5 0 -15 21 -24 48 -9 26 -28 78 -42 117 -30 82 -29 75 -13 75 6 0 32 -53 56 -118z m-3872 101 c0 -3 -4 -8 -10 -11 -5 -3 -10 -1 -10 4 0 6 5 11 10 11 6 0 10 -2 10 -4z m1066 0 c-29 -2 -77 -2 -105 0 -29 2 -6 3 52 3 58 0 81 -1 53 -3z m-1103 -17 c0 -3 -4 -8 -10 -11 -5 -3 -10 -1 -10 4 0 6 5 11 10 11 6 0 10 -2 10 -4z m80 -6 c0 -5 -2 -10 -4 -10 -3 0 -8 5 -11 10 -3 6 -1 10 4 10 6 0 11 -4 11 -10z m1055 -6 c-45 -7 -183 -9 -178 -2 2 5 48 7 101 7 53 -1 88 -3 77 -5z m-1208 -31 c-4 -3 -10 -3 -14 0 -3 4 0 7 7 7 7 0 10 -3 7 -7z m1460 0 c-4 -3 -10 -3 -14 0 -3 4 0 7 7 7 7 0 10 -3 7 -7z m2283 4 c0 -1 27 -76 60 -166 33 -90 60 -166 60 -167 0 -2 -6 -4 -13 -4 -9 0 -34 55 -65 143 -61 171 -68 197 -53 197 6 0 11 -1 11 -3z m-2567 -14 c-29 -2 -77 -2 -105 0 -29 2 -6 3 52 3 58 0 81 -1 53 -3z m-1146 -20 c-4 -3 -7 0 -7 7 0 7 3 10 7 7 3 -4 3 -10 0 -14z m53 7 c0 -5 -4 -10 -10 -10 -5 0 -10 5 -10 10 0 6 5 10 10 10 6 0 10 -4 10 -10z m1377 -17 c-4 -3 -10 -3 -14 0 -3 4 0 7 7 7 7 0 10 -3 7 -7z m50 0 c-4 -3 -10 -3 -14 0 -3 4 0 7 7 7 7 0 10 -3 7 -7z m-1360 -10 c-4 -3 -10 -3 -14 0 -3 4 0 7 7 7 7 0 10 -3 7 -7z m1420 -10 c-4 -3 -7 0 -7 7 0 7 3 10 7 7 3 -4 3 -10 0 -14z m2040 -186 c71 -198 72 -198 57 -203 -6 -3 -15 10 -21 28 -6 18 -23 64 -37 102 -13 39 -23 74 -20 78 3 4 0 8 -5 8 -6 0 -10 3 -9 8 1 4 -3 18 -9 32 -6 14 -18 42 -27 64 -19 46 -20 56 -3 56 7 0 39 -74 74 -173z m-3517 149 c0 -3 -4 -8 -10 -11 -5 -3 -10 -1 -10 4 0 6 5 11 10 11 6 0 10 -2 10 -4z m1567 -13 c-4 -3 -7 0 -7 7 0 7 3 10 7 7 3 -4 3 -10 0 -14z m-1660 -20 c-4 -3 -7 0 -7 7 0 7 3 10 7 7 3 -4 3 -10 0 -14z m1470 10 c-4 -3 -10 -3 -14 0 -3 4 0 7 7 7 7 0 10 -3 7 -7z m1050 -25 c-3 -7 -5 -2 -5 12 0 14 2 19 5 13 2 -7 2 -19 0 -25z m-2470 15 c-4 -3 -10 -3 -14 0 -3 4 0 7 7 7 7 0 10 -3 7 -7z m1480 -30 c-4 -3 -7 0 -7 7 0 7 3 10 7 7 3 -4 3 -10 0 -14z m1120 -10 c-4 -3 -10 -3 -14 0 -3 4 0 7 7 7 7 0 10 -3 7 -7z m-1140 -10 c-4 -3 -10 -3 -14 0 -3 4 0 7 7 7 7 0 10 -3 7 -7z m1020 -20 c-4 -3 -10 -3 -14 0 -3 4 0 7 7 7 7 0 10 -3 7 -7z m610 1 c-3 -3 -12 -4 -19 -1 -8 3 -5 6 6 6 11 1 17 -2 13 -5z m-1680 -21 c-4 -3 -7 0 -7 7 0 7 3 10 7 7 3 -4 3 -10 0 -14z m1020 -10 c-4 -3 -7 0 -7 7 0 7 3 10 7 7 3 -4 3 -10 0 -14z m20 0 c-4 -3 -7 0 -7 7 0 7 3 10 7 7 3 -4 3 -10 0 -14z m-1010 -10 c-4 -3 -10 -3 -14 0 -3 4 0 7 7 7 7 0 10 -3 7 -7z m1656 0 c-7 -2 -19 -2 -25 0 -7 3 -2 5 12 5 14 0 19 -2 13 -5z m-616 -10 c-4 -3 -10 -3 -14 0 -3 4 0 7 7 7 7 0 10 -3 7 -7z m-1070 -20 c-4 -3 -7 0 -7 7 0 7 3 10 7 7 3 -4 3 -10 0 -14z m50 0 c-4 -3 -7 0 -7 7 0 7 3 10 7 7 3 -4 3 -10 0 -14z m140 10 c-4 -3 -10 -3 -14 0 -3 4 0 7 7 7 7 0 10 -3 7 -7z m1496 -10 c-7 -2 -19 -2 -25 0 -7 3 -2 5 12 5 14 0 19 -2 13 -5z m-100 -40 c-24 -2 -62 -2 -85 0 -24 2 -5 4 42 4 47 0 66 -2 43 -4z m94 1 c-3 -3 -12 -4 -19 -1 -8 3 -5 6 6 6 11 1 17 -2 13 -5z m-1620 -11 c-4 -3 -10 -3 -14 0 -3 4 0 7 7 7 7 0 10 -3 7 -7z m60 0 c-4 -3 -10 -3 -14 0 -3 4 0 7 7 7 7 0 10 -3 7 -7z m-90 -30 c-4 -3 -7 0 -7 7 0 7 3 10 7 7 3 -4 3 -10 0 -14z m1556 10 c-24 -2 -62 -2 -85 0 -24 2 -5 4 42 4 47 0 66 -2 43 -4z m100 0 c-7 -2 -19 -2 -25 0 -7 3 -2 5 12 5 14 0 19 -2 13 -5z m-3118 -23 c3 -5 4 -10 1 -10 -3 0 -8 5 -11 10 -3 6 -4 10 -1 10 3 0 8 -4 11 -10z m3042 -7 c-4 -3 -10 -3 -14 0 -3 4 0 7 7 7 7 0 10 -3 7 -7z m73 -3 c-8 -5 -19 -10 -25 -10 -5 0 -3 5 5 10 8 5 20 10 25 10 6 0 3 -5 -5 -10z m-132 -7 c-15 -2 -42 -2 -60 0 -18 2 -6 4 27 4 33 0 48 -2 33 -4z m-2933 -65 c16 -24 22 -38 14 -31 -15 12 -53 73 -46 73 2 0 17 -19 32 -42z m2963 35 c-21 -2 -57 -2 -80 0 -24 2 -7 4 37 4 44 0 63 -2 43 -4z m105 0 c-7 -2 -19 -2 -25 0 -7 3 -2 5 12 5 14 0 19 -2 13 -5z m-3028 -93 c3 -5 4 -10 1 -10 -3 0 -8 5 -11 10 -3 6 -4 10 -1 10 3 0 8 -4 11 -10z m26 -37 c13 -16 12 -17 -3 -4 -10 7 -18 15 -18 17 0 8 8 3 21 -13z m30 -40 c13 -16 12 -17 -3 -4 -10 7 -18 15 -18 17 0 8 8 3 21 -13z m55 -70 c21 -26 33 -44 27 -40 -14 9 -77 87 -70 87 3 0 22 -21 43 -47z m124 -140 c0 -8 -9 0 -50 45 l-45 47 48 -45 c26 -24 47 -45 47 -47z m55 -54 c11 -16 1 -19 -13 -3 -7 8 -8 14 -3 14 5 0 13 -5 16 -11z m2912 -506 c-4 -3 -7 0 -7 7 0 7 3 10 7 7 3 -4 3 -10 0 -14z"/> <path d="M4415 2549 c-11 -17 1 -21 15 -4 8 9 8 15 2 15 -6 0 -14 -5 -17 -11z"/> <path d="M860 670 c-9 -6 -10 -10 -3 -10 6 0 15 5 18 10 8 12 4 12 -15 0z"/> <path d="M916 598 c3 -5 10 -6 15 -3 13 9 11 12 -6 12 -8 0 -12 -4 -9 -9z"/> <path d="M1043 533 c4 -3 10 -3 14 0 3 4 0 7 -7 7 -7 0 -10 -3 -7 -7z"/> <path d="M1090 531 c0 -6 4 -13 10 -16 6 -3 7 1 4 9 -7 18 -14 21 -14 7z"/> <path d="M1134 468 c-4 -7 -3 -8 4 -4 7 4 12 9 12 12 0 8 -9 4 -16 -8z"/> <path d="M1140 445 c-11 -13 -10 -14 4 -9 9 3 16 10 16 15 0 13 -6 11 -20 -6z"/> <path d="M3604 308 c-4 -7 -3 -8 4 -4 7 4 12 9 12 12 0 8 -9 4 -16 -8z"/> <path d="M1429 283 c-7 -10 -9 -15 -4 -10 4 4 20 -3 34 -15 l26 -23 -23 26 c-18 20 -20 28 -10 32 7 3 8 6 2 6 -6 1 -18 -7 -25 -16z"/> <path d="M1490 291 c0 -6 4 -13 10 -16 6 -3 7 1 4 9 -7 18 -14 21 -14 7z"/> <path d="M3620 290 c0 -7 3 -10 7 -7 3 4 3 10 0 14 -4 3 -7 0 -7 -7z"/> <path d="M1585 219 c-4 -6 -5 -12 -2 -15 2 -3 7 2 10 11 7 17 1 20 -8 4z"/> <path d="M3526 217 c3 -10 9 -15 12 -12 3 3 0 11 -7 18 -10 9 -11 8 -5 -6z"/> <path d="M1555 210 c3 -5 8 -10 11 -10 3 0 2 5 -1 10 -3 6 -8 10 -11 10 -3 0 -2 -4 1 -10z"/> <path d="M1624 208 c-4 -7 -3 -8 4 -4 12 7 16 16 8 16 -3 0 -8 -5 -12 -12z"/> <path d="M3485 210 c3 -5 8 -10 11 -10 3 0 2 5 -1 10 -3 6 -8 10 -11 10 -3 0 -2 -4 1 -10z"/> <path d="M3554 208 c-4 -7 -3 -8 4 -4 7 4 12 9 12 12 0 8 -9 4 -16 -8z"/> <path d="M1665 191 c-3 -5 -2 -12 3 -15 5 -3 9 1 9 9 0 17 -3 19 -12 6z"/> <path d="M3443 185 c0 -8 4 -12 9 -9 5 3 6 10 3 15 -9 13 -12 11 -12 -6z"/> <path d="M1769 143 c-13 -16 -12 -17 4 -4 16 13 21 21 13 21 -2 0 -10 -8 -17 -17z"/> <path d="M3330 156 c0 -2 8 -10 18 -17 15 -13 16 -12 3 4 -13 16 -21 21 -21 13z"/> <path d="M2130 50 c0 -7 3 -10 7 -7 3 4 3 10 0 14 -4 3 -7 0 -7 -7z"/> <path d="M2323 53 c4 -3 10 -3 14 0 3 4 0 7 -7 7 -7 0 -10 -3 -7 -7z"/> <path d="M2370 51 c0 -6 4 -13 10 -16 6 -3 7 1 4 9 -7 18 -14 21 -14 7z"/> <path d="M2736 43 c-6 -14 -5 -15 5 -6 7 7 10 15 7 18 -3 3 -9 -2 -12 -12z"/> <path d="M2783 53 c4 -3 10 -3 14 0 3 4 0 7 -7 7 -7 0 -10 -3 -7 -7z"/> <path d="M2980 50 c0 -7 3 -10 7 -7 3 4 3 10 0 14 -4 3 -7 0 -7 -7z"/> <path d="M2335 20 c10 -11 20 -20 23 -20 3 0 -3 9 -13 20 -10 11 -20 20 -23 20 -3 0 3 -9 13 -20z"/> <path d="M2774 18 l-19 -23 23 19 c12 11 22 21 22 23 0 8 -8 2 -26 -19z"/> </g> </svg>