<svg version="1.0" xmlns="http://www.w3.org/2000/svg"  width="960.000000pt" height="960.000000pt" viewBox="0 0 433.000000 433.000000"  preserveAspectRatio="xMidYMid meet"> <g transform="translate(0.000000,433.000000) scale(0.100000,-0.100000)" fill="#000000" stroke="none"> <path d="M566 2605 c-8 -297 -43 -1011 -52 -1067 l-7 -38 140 0 141 0 6 238 c12 429 26 806 32 869 l6 61 96 7 c251 19 341 -23 350 -161 5 -79 -11 -126 -60 -180 -53 -58 -115 -78 -235 -77 -51 0 -93 -2 -93 -6 0 -24 35 -149 45 -160 20 -21 167 -26 254 -7 191 40 301 134 352 297 30 97 21 240 -20 318 -24 44 -85 103 -131 126 -80 41 -149 47 -495 43 l-323 -3 -6 -260z"/> <path d="M1918 2685 c-49 -99 -114 -225 -143 -280 -29 -55 -115 -219 -190 -365 -76 -146 -171 -325 -212 -399 -40 -74 -73 -136 -73 -138 0 -2 71 -3 159 -3 l158 0 71 153 c38 83 89 194 113 244 l44 93 273 0 273 0 15 -37 c9 -20 47 -129 85 -242 l68 -206 151 -3 c82 -1 150 1 150 6 0 5 -27 82 -61 173 -207 564 -298 814 -355 976 -35 101 -67 189 -71 196 -6 9 -57 12 -186 12 l-179 0 -90 -180z m422 -497 c0 -7 -389 -9 -402 -2 -3 2 40 99 98 215 57 116 111 227 120 247 l16 37 84 -245 c46 -134 84 -248 84 -252z"/> <path d="M2056 2362 c-19 -4 -90 -138 -80 -153 6 -10 318 -8 329 2 2 3 -6 36 -19 74 l-23 70 -96 5 c-52 3 -102 4 -111 2z"/> <path d="M3054 2861 c-2 -2 -4 -54 -4 -115 0 -236 -26 -771 -56 -1158 l-7 -88 472 0 c259 0 471 3 472 8 0 4 4 49 7 100 l7 92 -324 0 -324 0 7 163 c6 150 43 887 49 967 l2 34 -148 1 c-82 0 -151 -2 -153 -4z"/> <path d="M122 2358 c2 -3 55 -49 118 -102 l114 -96 88 0 88 0 0 69 c0 38 3 82 6 99 l6 31 -211 3 c-116 2 -210 0 -209 -4z"/> <path d="M1570 2360 c-5 -3 -22 -31 -39 -63 -17 -32 -46 -74 -65 -95 l-36 -37 93 -3 c106 -3 93 -13 164 120 l42 78 -27 1 c-98 4 -125 3 -132 -1z"/> <path d="M2573 2360 c1 -3 18 -49 37 -103 l35 -97 182 0 181 0 7 95 c4 53 5 98 2 101 -7 7 -448 11 -444 4z"/> <path d="M837 2353 c-4 -3 -7 -48 -7 -100 l0 -93 29 0 c28 0 29 1 20 38 -5 20 -12 48 -15 62 l-6 25 124 0 c108 0 129 3 170 23 25 13 49 29 52 37 5 13 -22 15 -178 15 -100 0 -186 -3 -189 -7z"/> <path d="M3346 2299 c-3 -34 -6 -79 -6 -100 l0 -39 452 0 c248 0 449 2 447 4 -7 6 -92 78 -149 126 -29 25 -60 50 -69 57 -12 9 -101 12 -342 13 l-326 0 -7 -61z"/> <path d="M245 2004 c-55 -47 -107 -91 -115 -99 -12 -13 11 -15 188 -15 l202 0 0 100 0 100 -87 -1 -88 0 -100 -85z"/> <path d="M826 2053 c-3 -21 -6 -66 -6 -101 l0 -62 333 2 332 3 47 90 c26 50 47 93 48 98 0 4 -63 7 -141 7 -106 0 -155 -4 -197 -17 -82 -26 -308 -26 -327 0 -7 10 -26 17 -47 17 -33 0 -36 -2 -42 -37z"/> <path d="M2697 2023 c14 -38 30 -83 36 -100 l10 -33 128 0 128 0 3 100 3 100 -167 0 -167 0 26 -67z"/> <path d="M3337 2078 c-2 -7 -5 -52 -6 -100 l-2 -88 336 0 337 0 52 42 c28 24 81 69 119 100 l68 58 -450 0 c-350 0 -450 -3 -454 -12z"/> <path d="M1841 1930 l-21 -40 290 0 c160 0 290 3 290 7 0 4 -5 22 -12 40 l-12 33 -257 0 -257 0 -21 -40z"/> </g> </svg>