<svg version="1.0" xmlns="http://www.w3.org/2000/svg" width="960" height="960" viewBox="0 0 587.000000 600.000000" preserveAspectRatio="xMidYMid meet"><g transform="translate(0.000000,600.000000) scale(0.100000,-0.100000)" fill="#000000" stroke="none"><path d="M4218 5733 c-8 -10 -33 -45 -56 -79 -31 -47 -42 -73 -47 -120 -3 -32 -22 -146 -42 -253 l-36 -195 -180 -299 c-99 -165 -182 -307 -184 -317 -4 -14 11 -27 60 -54 35 -20 68 -36 73 -36 6 0 59 82 118 183 269 450 248 421 348 489 50 33 124 90 166 127 43 37 97 82 122 100 43 31 150 178 150 206 0 7 -27 26 -59 44 l-59 31 -95 -102 c-93 -100 -96 -102 -121 -88 -14 7 -26 18 -26 25 0 6 21 44 46 85 55 90 66 110 60 110 -2 0 -30 -43 -62 -95 -32 -52 -63 -95 -69 -95 -5 0 -18 7 -29 15 -18 14 -17 18 18 131 20 64 36 122 36 130 0 11 -93 74 -111 74 -3 0 -13 -8 -21 -17z"/><path d="M3011 5614 c-42 -67 -50 -86 -56 -147 -3 -39 -19 -155 -34 -258 l-28 -187 -163 -274 c-90 -150 -172 -287 -182 -305 l-19 -31 71 -42 c39 -23 76 -40 82 -38 6 2 41 55 78 118 299 510 271 468 368 545 106 83 275 223 317 263 35 33 109 167 100 182 -7 12 -99 60 -115 60 -5 0 -47 -43 -92 -95 -45 -52 -90 -95 -98 -95 -9 0 -25 6 -35 14 -18 13 -17 18 32 102 62 109 75 134 69 134 -2 0 -32 -47 -66 -105 -62 -107 -82 -123 -110 -90 -11 13 -7 36 23 133 21 64 37 122 37 127 0 11 -99 65 -119 65 -6 0 -33 -34 -60 -76z"/><path d="M4464 5608 c-4 -7 -3 -8 4 -4 12 7 16 16 8 16 -3 0 -8 -5 -12 -12z"/><path d="M3563 4293 c-92 -156 -135 -247 -182 -381 -51 -148 -43 -154 68 -47 51 50 113 116 137 148 64 86 206 325 199 337 -5 9 -127 80 -136 80 -3 0 -41 -62 -86 -137z"/><path d="M2450 4273 c-81 -136 -122 -218 -159 -313 -40 -105 -71 -219 -61 -225 30 -19 242 232 349 412 46 78 84 145 84 150 0 7 -130 82 -144 83 -3 0 -34 -48 -69 -107z"/><path d="M5464 4026 c-4 -9 20 -39 69 -85 60 -58 77 -80 87 -119 7 -26 19 -54 27 -63 14 -17 20 -239 6 -239 -14 0 -77 41 -105 68 -16 14 -28 21 -28 15 0 -17 70 -71 108 -85 23 -9 32 -18 32 -35 0 -13 -6 -23 -14 -23 -24 0 -30 -21 -7 -27 15 -4 21 -13 21 -34 0 -16 -3 -29 -7 -29 -5 0 -19 -10 -33 -21 l-25 -20 31 15 31 15 6 -74 c4 -41 3 -83 -1 -94 -7 -18 -11 -17 -70 18 -34 21 -66 41 -69 45 -4 4 10 23 32 43 l40 35 -35 -21 c-67 -39 -66 -71 3 -101 24 -11 56 -29 70 -40 26 -21 27 -25 27 -122 0 -91 -2 -101 -22 -119 -13 -10 -27 -18 -31 -19 -4 0 -19 26 -33 58 -13 31 -29 65 -34 75 -6 9 -8 28 -4 42 3 14 2 25 -4 25 -5 0 -21 27 -35 59 -21 49 -25 69 -20 115 4 39 2 56 -6 56 -6 0 -11 -9 -11 -20 0 -37 -18 -20 -45 44 -17 39 -25 72 -21 84 5 14 0 28 -13 41 -12 12 -21 24 -21 29 0 4 -28 18 -61 31 l-62 23 -69 -27 c-38 -15 -71 -34 -74 -41 -14 -46 -13 -45 -33 -34 -27 14 -151 -35 -151 -60 0 -24 -11 -32 -27 -19 -10 9 -30 4 -83 -17 -38 -16 -70 -34 -70 -41 0 -7 -13 -12 -32 -11 -18 0 -60 -10 -93 -24 -57 -23 -59 -25 -62 -63 -2 -30 3 -44 17 -55 21 -17 131 -270 123 -283 -3 -5 -16 -6 -28 -3 -18 5 -31 -2 -54 -25 -31 -30 -34 -53 -6 -43 7 3 22 -4 32 -15 9 -12 24 -21 33 -21 9 0 30 -36 58 -99 43 -101 50 -131 32 -131 -5 0 -10 9 -10 20 0 11 -7 20 -15 20 -9 0 -33 -9 -55 -20 -48 -24 -73 -25 -91 -4 -11 13 -26 15 -81 11 -96 -8 -119 6 -170 108 -49 99 -132 211 -191 258 -24 20 -69 48 -101 63 -51 23 -67 26 -136 22 -96 -6 -166 -37 -293 -131 -71 -54 -90 -63 -116 -59 -29 4 -31 7 -31 48 0 36 -3 44 -19 44 -10 0 -30 9 -44 20 -31 24 -77 26 -120 4 -44 23 -47 29 -47 111 0 82 -15 95 -52 47 -16 -20 -26 -24 -49 -19 -24 6 -29 3 -29 -13 0 -48 -7 -52 -88 -46 -130 9 -121 1 -124 101 -3 77 -5 86 -23 90 -10 2 -26 13 -36 25 -24 32 -30 12 -28 -95 2 -101 -2 -116 -31 -116 -20 0 -30 -52 -33 -181 -2 -63 -4 -67 -44 -107 -24 -22 -43 -47 -43 -56 0 -8 -4 -18 -10 -21 -6 -3 -10 4 -10 17 0 15 -16 39 -39 62 -38 37 -40 42 -45 120 -3 44 -7 121 -8 171 -3 82 -5 90 -23 90 -18 0 -20 -8 -23 -65 -2 -36 -7 -69 -13 -75 -5 -5 -9 -40 -9 -77 l0 -68 -31 0 c-22 0 -32 -5 -36 -20 -4 -17 -14 -20 -58 -20 -44 0 -54 3 -58 20 -3 13 -14 20 -31 20 l-25 0 -3 -107 -3 -107 -33 -8 -32 -9 0 -88 c0 -65 -4 -92 -15 -101 -29 -24 -35 0 -35 150 0 88 -4 151 -10 155 -5 3 -10 35 -10 70 l0 64 -33 3 c-30 3 -32 5 -35 48 -5 84 -8 96 -30 118 -18 18 -22 34 -22 88 0 41 -4 63 -10 59 -5 -3 -10 -33 -10 -66 0 -46 -4 -63 -20 -79 -11 -11 -20 -28 -20 -37 0 -10 -4 -25 -10 -33 -5 -9 -5 -19 1 -27 20 -24 6 -58 -26 -63 l-30 -5 -6 -110 c-4 -61 -7 -156 -8 -212 -1 -94 -3 -103 -20 -103 -11 0 -26 -3 -35 -6 -13 -5 -16 1 -16 33 0 50 -14 63 -67 63 -39 0 -43 2 -43 25 0 14 5 45 12 69 10 39 10 48 -5 64 -14 15 -17 40 -17 145 l0 126 -57 11 c-86 17 -90 19 -98 43 -7 22 -7 22 -14 -3 -6 -22 -15 -26 -74 -35 -36 -5 -71 -15 -78 -21 -7 -8 -10 -64 -7 -178 l3 -166 -30 0 c-73 0 -75 -3 -75 -101 0 -83 -2 -90 -25 -105 -32 -21 -45 -11 -45 34 0 20 -7 46 -15 56 -10 14 -15 45 -15 98 0 70 -2 78 -19 78 -13 0 -21 8 -23 23 -3 19 -10 22 -58 25 -30 2 -63 -1 -75 -6 -11 -6 -28 -13 -38 -16 -21 -7 -14 -26 9 -26 11 0 12 -4 4 -19 -7 -15 -23 -21 -55 -23 l-48 -3 -3 -107 c-2 -80 -6 -109 -18 -119 -11 -9 -18 -9 -26 -1 -7 7 -22 12 -35 12 l-23 0 -2 533 -3 532 -33 3 c-25 3 -35 10 -43 29 -9 26 -11 26 -86 19 -42 -3 -100 -6 -128 -6 -44 0 -54 -3 -58 -19 -3 -12 -15 -21 -33 -23 l-29 -3 -5 -640 c-3 -352 -6 -642 -8 -645 -9 -18 -22 36 -22 93 0 38 -5 77 -10 88 -13 23 -48 25 -56 4 -4 -8 -10 -12 -16 -9 -6 4 -9 63 -7 147 3 115 0 142 -11 145 -8 3 -21 11 -28 19 -19 19 -63 16 -90 -7 -18 -15 -23 -28 -21 -54 2 -19 0 -38 -4 -42 -4 -4 -7 -637 -7 -1406 l0 -1398 2935 0 2935 0 0 906 0 907 -65 -5 c-52 -5 -73 -2 -103 14 -29 15 -49 18 -90 14 -45 -5 -59 -3 -98 20 -25 15 -46 35 -49 47 -2 12 -9 46 -15 76 -6 30 -22 81 -37 113 -15 35 -22 62 -17 68 16 15 187 82 219 85 59 5 111 19 160 41 28 13 53 20 58 15 16 -16 -4 -52 -45 -77 -40 -26 -40 -26 -34 -74 6 -42 4 -50 -15 -64 -17 -12 -20 -21 -16 -45 8 -40 -28 -100 -60 -101 -14 0 -23 -6 -23 -16 0 -11 5 -14 16 -10 9 3 36 -3 62 -14 41 -19 47 -19 63 -4 9 8 23 14 31 13 7 -1 23 -1 36 0 l22 1 0 248 c0 137 -3 252 -7 256 -4 4 -6 22 -5 40 4 39 -14 51 -53 36 -22 -8 -27 -6 -34 13 -5 12 -21 48 -35 80 -24 53 -26 69 -26 191 0 132 0 134 25 150 14 9 25 24 24 34 0 13 -3 13 -11 -5 -6 -12 -17 -24 -24 -27 -11 -4 -14 8 -14 52 0 32 4 62 9 67 5 6 12 21 16 35 7 21 6 23 -7 13 -12 -10 -14 14 -16 176 -2 157 0 191 13 201 19 16 19 40 -1 68 -13 19 -15 48 -12 166 3 130 1 146 -16 165 -11 11 -27 21 -36 21 -10 0 -56 34 -104 76 -64 56 -88 72 -92 60z m-4874 -416 c0 -5 -5 -10 -11 -10 -5 0 -7 5 -4 10 3 6 8 10 11 10 2 0 4 -4 4 -10z m-53 -37 c-4 -3 -7 0 -7 7 0 7 3 10 7 7 3 -4 3 -10 0 -14z m100 0 c-4 -3 -7 0 -7 7 0 7 3 10 7 7 3 -4 3 -10 0 -14z m-170 -60 c-4 -3 -10 -3 -14 0 -3 4 0 7 7 7 7 0 10 -3 7 -7z m180 0 c-4 -3 -10 -3 -14 0 -3 4 0 7 7 7 7 0 10 -3 7 -7z m-50 -30 c-4 -3 -10 -3 -14 0 -3 4 0 7 7 7 7 0 10 -3 7 -7z m-140 -30 c-4 -3 -7 0 -7 7 0 7 3 10 7 7 3 -4 3 -10 0 -14z m190 0 c-4 -3 -10 -3 -14 0 -3 4 0 7 7 7 7 0 10 -3 7 -7z m-140 -70 c-4 -3 -7 0 -7 7 0 7 3 10 7 7 3 -4 3 -10 0 -14z m4666 -115 c60 -140 65 -158 44 -158 -10 0 -127 261 -127 284 0 3 6 6 13 6 8 0 38 -57 70 -132z m-4696 55 c-4 -3 -7 0 -7 7 0 7 3 10 7 7 3 -4 3 -10 0 -14z m4516 -137 c44 -101 57 -140 49 -148 -7 -7 -13 -10 -15 -7 -14 18 -124 286 -120 292 12 21 31 -10 86 -137z m-4383 94 c0 -5 -4 -10 -10 -10 -5 0 -10 5 -10 10 0 6 5 10 10 10 6 0 10 -4 10 -10z m-50 -20 c0 -5 -5 -10 -11 -10 -5 0 -7 5 -4 10 3 6 8 10 11 10 2 0 4 -4 4 -10z m4252 -150 c32 -73 58 -138 58 -143 0 -4 -7 -7 -16 -5 -17 3 -135 266 -127 281 12 21 32 -10 85 -133z m-4485 93 c-4 -3 -7 0 -7 7 0 7 3 10 7 7 3 -4 3 -10 0 -14z m140 0 c-4 -3 -7 0 -7 7 0 7 3 10 7 7 3 -4 3 -10 0 -14z m-127 -33 c0 -5 -5 -10 -11 -10 -5 0 -7 5 -4 10 3 6 8 10 11 10 2 0 4 -4 4 -10z m87 -7 c-4 -3 -7 0 -7 7 0 7 3 10 7 7 3 -4 3 -10 0 -14z m-40 -20 c-4 -3 -10 -3 -14 0 -3 4 0 7 7 7 7 0 10 -3 7 -7z m4929 -213 c47 -113 51 -130 32 -130 -14 0 -110 225 -100 235 14 13 26 -6 68 -105z m-1300 20 c169 -74 301 -292 370 -610 15 -68 19 -128 19 -300 0 -188 -3 -228 -23 -319 -28 -122 -71 -244 -114 -321 -102 -182 -219 -269 -373 -278 -130 -7 -236 36 -357 146 -105 95 -203 147 -408 217 -91 31 -466 128 -541 140 -44 7 -110 62 -144 118 -60 104 -75 300 -32 419 33 93 70 151 121 193 39 31 66 42 198 75 359 91 628 220 838 404 80 70 163 120 226 136 57 14 166 4 220 -20z m-3669 13 c-4 -3 -10 -3 -14 0 -3 4 0 7 7 7 7 0 10 -3 7 -7z m4746 -10 c3 -10 24 -62 46 -116 23 -54 41 -100 41 -102 0 -1 -6 -5 -14 -8 -10 -4 -27 26 -61 109 -25 62 -44 118 -40 124 9 15 22 12 28 -7z m-4706 -20 c-4 -3 -7 0 -7 7 0 7 3 10 7 7 3 -4 3 -10 0 -14z m50 0 c-4 -3 -7 0 -7 7 0 7 3 10 7 7 3 -4 3 -10 0 -14z m90 -30 c-4 -3 -7 0 -7 7 0 7 3 10 7 7 3 -4 3 -10 0 -14z m5133 -60 l-1 -78 -24 45 c-13 25 -24 51 -25 59 0 16 28 51 42 51 4 0 8 -35 8 -77z m-708 -69 c29 -68 43 -113 37 -119 -6 -6 -12 -6 -17 0 -14 15 -92 205 -92 222 0 38 29 -3 72 -103z m-4602 46 c0 -5 -2 -10 -4 -10 -3 0 -8 5 -11 10 -3 6 -1 10 4 10 6 0 11 -4 11 -10z m50 0 c0 -5 -2 -10 -4 -10 -3 0 -8 5 -11 10 -3 6 -1 10 4 10 6 0 11 -4 11 -10z m1057 -7 c-4 -3 -10 -3 -14 0 -3 4 0 7 7 7 7 0 10 -3 7 -7z m-1020 -70 c-4 -3 -10 -3 -14 0 -3 4 0 7 7 7 7 0 10 -3 7 -7z m4988 -80 c115 -271 118 -279 93 -271 -14 5 -158 339 -151 351 11 18 24 1 58 -80z m-3968 40 c-4 -3 -7 0 -7 7 0 7 3 10 7 7 3 -4 3 -10 0 -14z m204 -61 c-8 -13 -10 -5 -10 33 1 48 1 49 10 17 6 -21 6 -39 0 -50z m3622 -146 c68 -161 77 -191 55 -184 -11 4 -36 57 -138 295 -22 52 -20 88 5 61 6 -7 42 -84 78 -172z m-4936 167 c-4 -3 -10 -3 -14 0 -3 4 0 7 7 7 7 0 10 -3 7 -7z m4708 -138 c28 -66 29 -80 4 -70 -17 7 -63 121 -54 135 11 17 21 3 50 -65z m-4176 -89 c-84 -49 -182 -147 -229 -229 -101 -175 -97 -394 13 -587 45 -81 178 -208 262 -253 77 -40 72 -44 -25 -21 -306 72 -517 377 -457 661 44 205 214 386 427 454 88 28 90 22 9 -25z m4082 28 c130 -39 244 -120 329 -235 68 -92 97 -163 112 -274 33 -249 -129 -498 -386 -591 -36 -13 -88 -26 -118 -30 l-53 -6 75 38 c53 27 99 62 156 119 215 212 250 501 92 752 -48 76 -147 169 -225 211 -65 35 -61 39 18 16z m-3052 -30 c17 -4 31 -9 31 -13 0 -3 -20 -14 -45 -25 -127 -52 -215 -208 -215 -381 0 -149 52 -259 159 -336 66 -47 53 -58 -50 -42 -158 25 -261 116 -310 274 -90 290 148 579 430 523z m288 -40 l38 -17 -60 -7 c-69 -8 -110 -27 -165 -76 -138 -125 -159 -357 -47 -522 36 -54 98 -100 146 -108 89 -14 64 -31 -50 -33 -96 -1 -153 22 -219 88 -71 71 -100 143 -107 261 -13 212 96 386 271 431 45 12 149 2 193 -17z m-1017 12 c0 -3 -21 -15 -47 -28 -60 -29 -152 -115 -192 -176 -90 -141 -102 -332 -30 -491 50 -110 147 -213 247 -263 34 -17 61 -33 58 -35 -9 -10 -144 30 -200 59 -76 40 -195 156 -228 223 -125 247 -33 530 213 656 66 34 179 68 179 55z m3605 -31 c239 -90 372 -339 309 -580 -40 -154 -167 -290 -326 -349 -57 -21 -138 -40 -138 -32 0 2 26 17 57 32 76 38 190 151 231 230 129 247 45 557 -188 692 -69 39 -41 43 55 7z m-2340 -39 c-56 -60 -93 -132 -110 -213 -35 -163 1 -348 83 -435 27 -29 20 -35 -22 -18 -23 8 -230 58 -316 75 -35 7 -35 7 -17 -13 10 -11 33 -27 50 -36 21 -10 26 -16 14 -16 -25 0 -88 34 -114 62 -33 35 -71 125 -82 196 -11 69 -2 147 26 226 20 54 90 139 134 161 15 8 81 20 146 25 65 6 141 14 168 19 83 14 84 14 40 -33z m-1188 -99 c-141 -139 -173 -319 -88 -492 40 -81 98 -146 173 -192 33 -20 56 -39 50 -41 -16 -5 -130 37 -174 64 -64 41 -124 109 -160 182 -30 61 -33 74 -33 162 0 87 3 101 32 160 40 81 109 151 187 190 32 17 63 30 68 30 5 0 -19 -28 -55 -63z m3397 3 c58 -39 109 -102 142 -175 23 -49 27 -74 28 -144 0 -76 -3 -94 -31 -154 -40 -83 -115 -165 -191 -205 -57 -30 -140 -57 -148 -49 -3 3 14 16 38 30 63 37 160 143 191 209 75 158 40 351 -84 476 -29 28 -57 52 -61 52 -4 0 -8 4 -8 10 0 14 75 -15 124 -50z m1016 -440 c12 -8 12 -10 -3 -16 -9 -3 -29 -3 -45 1 -25 7 -25 8 -7 15 27 11 37 11 55 0z m-3503 -127 c-4 -3 -10 -3 -14 0 -3 4 0 7 7 7 7 0 10 -3 7 -7z m30 -10 c-4 -3 -10 -3 -14 0 -3 4 0 7 7 7 7 0 10 -3 7 -7z m331 -69 c308 -72 315 -74 301 -90 -13 -15 -6 -103 14 -194 l12 -54 110 -14 c161 -20 201 -47 124 -85 -134 -65 -803 -70 -943 -5 l-28 12 7 80 c9 102 10 292 1 331 -7 30 -6 31 56 52 35 12 73 22 86 22 12 1 129 -24 260 -55z m-428 -368 c0 -57 -8 -66 -55 -66 -23 0 -57 3 -74 6 -26 5 -31 11 -31 34 0 21 7 30 28 38 36 14 61 19 100 21 30 1 32 -1 32 -33z m-201 -32 c-8 -28 -7 -41 6 -60 61 -94 336 -158 685 -158 260 -1 437 25 558 81 75 35 104 101 51 118 -10 4 -19 11 -19 16 0 12 -1 12 93 -11 217 -55 309 -119 249 -173 -50 -45 -158 -74 -387 -103 -194 -25 -714 -25 -930 0 -295 33 -458 68 -563 117 -52 25 -64 36 -69 60 -5 28 -7 29 -24 13 -30 -27 -24 -69 14 -98 144 -110 527 -178 1007 -178 422 0 730 44 926 132 66 30 95 60 87 91 -8 28 4 23 21 -8 17 -34 86 -338 86 -381 0 -37 -26 -57 -134 -108 -94 -43 -263 -87 -448 -116 -129 -20 -178 -22 -503 -22 -390 0 -511 10 -754 60 -198 41 -373 113 -426 176 -22 26 -25 36 -19 82 10 84 54 278 74 323 33 74 132 125 330 167 100 22 100 22 89 -20z m1299 -56 c-4 -30 -58 -64 -137 -88 -275 -83 -878 -58 -1081 45 -93 47 -59 48 145 5 179 -39 248 -45 485 -44 172 0 258 4 321 16 119 23 194 46 221 68 31 26 50 25 46 -2z m872 -469 c228 -39 377 -94 410 -152 13 -24 13 -28 -6 -54 -85 -115 -542 -205 -1186 -234 -489 -23 -1077 20 -1463 107 -218 48 -251 57 -315 82 -50 20 -81 26 -131 24 -41 -1 -93 6 -135 18 -38 11 -87 20 -109 20 -22 1 -51 7 -65 15 -14 8 -43 14 -65 15 -23 0 -67 7 -98 15 -32 8 -76 15 -98 15 -22 0 -75 7 -117 16 -42 9 -106 17 -142 17 l-64 1 33 14 c20 8 45 10 60 6 36 -9 159 -25 199 -25 19 0 46 8 60 17 23 15 56 18 201 21 154 3 182 7 244 28 70 25 86 23 87 -11 0 -17 62 -70 120 -102 118 -65 352 -121 660 -158 207 -26 700 -26 890 0 330 44 559 113 655 197 32 29 35 36 35 87 l0 55 108 -6 c59 -4 163 -16 232 -28z m-2600 -350 c0 -5 -11 -3 -25 3 -14 6 -25 15 -25 19 0 5 11 3 25 -3 14 -6 25 -15 25 -19z m131 -25 c-30 -9 -49 -10 -62 -3 -30 16 -23 19 44 18 l62 -1 -44 -14z m169 -59 l25 -14 -25 0 c-14 0 -41 7 -60 14 l-35 13 35 1 c19 0 46 -6 60 -14z m135 -20 c33 -15 17 -19 -34 -9 -17 4 -31 10 -31 15 0 13 30 10 65 -6z m195 -55 c11 -7 8 -10 -15 -9 -16 0 -39 4 -50 9 -16 7 -14 9 15 9 19 0 42 -4 50 -9z m323 -57 c-7 -2 -21 -2 -30 0 -10 3 -4 5 12 5 17 0 24 -2 18 -5z"/><path d="M3768 2876 c-70 -29 -118 -67 -174 -142 -186 -248 -255 -722 -158 -1085 84 -316 273 -490 491 -450 167 31 291 199 364 492 21 84 23 117 24 314 0 191 -3 235 -23 333 -86 426 -289 635 -524 538z m188 -33 c63 -21 158 -116 198 -198 40 -82 73 -184 93 -284 22 -110 25 -452 4 -556 -54 -279 -166 -487 -293 -545 -222 -101 -447 194 -489 638 -28 304 58 663 201 836 53 64 84 87 144 108 64 22 81 22 142 1z"/><path d="M3570 2204 c-6 -14 -10 -36 -10 -49 0 -21 5 -23 69 -27 39 -2 73 -6 76 -9 3 -4 1 -19 -6 -35 -16 -43 -13 -154 5 -199 19 -45 15 -50 -53 -60 -92 -13 -92 -13 -76 -45 8 -16 19 -31 23 -34 13 -8 241 22 276 36 97 39 139 248 72 363 -15 24 -39 51 -54 59 -17 8 -80 15 -170 19 l-143 6 -9 -25z"/><path d="M3415 2643 c-72 -50 -314 -166 -425 -203 -52 -18 -160 -47 -240 -66 -131 -30 -148 -37 -179 -69 -19 -19 -32 -37 -29 -41 10 -9 313 43 444 77 130 34 279 92 360 142 51 31 59 41 90 112 19 43 33 79 32 80 -2 2 -25 -13 -53 -32z"/><path d="M1856 2211 c-9 -10 -26 -45 -37 -77 -26 -72 -23 -199 5 -252 10 -19 19 -32 21 -30 2 2 -1 36 -7 77 -13 78 -3 167 26 253 17 49 16 55 -8 29z"/><path d="M2190 2288 c-85 -8 -98 -12 -119 -36 l-25 -27 30 -3 c16 -2 75 -1 130 3 109 7 101 3 132 68 4 8 -18 8 -148 -5z"/><path d="M2529 1513 c-22 -108 4 -364 34 -334 7 7 6 59 -2 170 -7 88 -10 173 -6 190 4 19 3 31 -3 31 -6 0 -16 -26 -23 -57z"/><path d="M2213 1488 c-31 -40 -17 -94 25 -105 52 -13 89 45 58 91 -18 28 -66 36 -83 14z"/><path d="M5535 3660 c-3 -5 -2 -10 4 -10 5 0 13 5 16 10 3 6 2 10 -4 10 -5 0 -13 -4 -16 -10z"/><path d="M5504 2106 c-18 -14 -18 -16 -1 -44 9 -17 17 -40 17 -51 0 -12 6 -21 14 -21 17 0 30 98 15 117 -14 17 -21 16 -45 -1z"/></g></svg>