<svg version="1.0" xmlns="http://www.w3.org/2000/svg"  width="960.000000pt" height="960.000000pt" viewBox="0 0 960.000000 960.000000"  preserveAspectRatio="xMidYMid meet"> <g transform="translate(0.000000,960.000000) scale(0.160000,-0.160000)" fill="#000000" stroke="none"> <path d="M4849 5750 c-127 -32 -252 -98 -355 -189 -78 -69 -180 -145 -304 -227 -293 -192 -585 -327 -1010 -462 -117 -38 -463 -120 -566 -135 -133 -20 -188 -48 -289 -151 -96 -97 -158 -196 -202 -324 -108 -309 -74 -643 88 -878 53 -76 94 -114 191 -179 44 -28 64 -36 85 -32 32 7 240 -34 498 -97 567 -139 943 -279 1201 -449 39 -25 117 -93 175 -150 168 -166 286 -238 448 -272 306 -64 602 95 819 441 66 106 151 293 195 430 91 283 124 502 134 891 11 474 -45 825 -186 1158 -109 256 -268 458 -440 557 -135 78 -332 106 -482 68z m252 -130 c180 -34 358 -194 474 -427 160 -322 219 -588 241 -1088 16 -379 -61 -853 -188 -1155 -145 -345 -337 -558 -553 -614 -82 -22 -209 -20 -283 3 -243 75 -461 328 -585 679 -131 368 -167 877 -96 1347 64 427 232 825 447 1057 57 61 164 137 239 169 83 36 206 47 304 29z m-881 -484 c-27 -54 -58 -129 -70 -167 -11 -38 -25 -69 -30 -69 -5 0 -49 -22 -96 -49 -244 -140 -586 -251 -1040 -335 -205 -39 -604 -88 -617 -77 -6 7 122 142 153 161 7 5 45 11 84 15 184 18 480 89 753 180 327 110 605 242 848 404 33 22 61 39 62 38 0 -1 -21 -46 -47 -101z m-130 -309 c0 -2 -11 -30 -24 -63 -13 -32 -32 -97 -42 -144 -9 -47 -21 -89 -26 -94 -15 -18 -9 143 8 182 23 55 64 122 74 122 6 0 10 -1 10 -3z"/> <path d="M4895 5508 c-181 -65 -356 -273 -478 -568 -188 -456 -249 -970 -172 -1455 35 -219 112 -473 190 -619 154 -293 349 -443 549 -422 321 33 607 548 703 1263 23 175 23 518 -1 713 -62 518 -217 870 -450 1024 -45 30 -99 59 -121 65 -50 14 -180 13 -220 -1z m59 -1180 c26 -8 60 -31 93 -64 45 -45 55 -62 83 -150 30 -93 32 -105 27 -209 -10 -205 -77 -340 -197 -394 -53 -24 -98 -26 -144 -7 -45 19 -136 82 -129 89 3 4 -5 28 -17 54 -44 93 -54 144 -54 253 1 100 10 144 49 233 6 15 1 17 -52 17 -33 0 -108 3 -167 7 l-108 6 5 31 c3 17 16 57 30 89 l26 57 257 0 c172 0 270 -4 298 -12z m-434 -785 c0 -5 -27 -22 -59 -39 l-60 -31 -20 28 c-12 16 -21 30 -21 33 0 4 22 7 133 14 15 1 27 -1 27 -5z"/> <path d="M784 4780 c-324 -85 -541 -333 -590 -676 -16 -111 -16 -124 0 -233 29 -195 102 -343 235 -477 94 -95 209 -158 344 -189 75 -16 282 -21 292 -6 3 5 -15 19 -39 32 -237 118 -410 456 -392 764 14 244 109 457 266 598 101 91 170 128 283 152 16 3 27 11 24 18 -12 37 -301 49 -423 17z"/> <path d="M1335 4766 c-103 -25 -230 -99 -318 -184 -267 -260 -343 -623 -205 -985 49 -130 173 -278 287 -345 116 -68 292 -103 418 -83 71 11 129 28 122 35 -2 3 -39 9 -81 15 -139 19 -241 82 -334 204 -226 298 -225 724 1 1024 64 85 138 146 228 188 73 34 112 45 222 63 l50 8 -34 18 c-43 23 -201 56 -261 55 -25 0 -68 -6 -95 -13z m-308 -429 c-14 -35 -38 -108 -53 -163 -24 -86 -28 -117 -28 -244 0 -118 4 -162 22 -234 31 -125 18 -131 -37 -19 -41 83 -61 170 -61 274 0 107 13 181 49 268 26 65 117 198 128 187 3 -3 -6 -34 -20 -69z"/> <path d="M2240 4689 c-41 -4 -181 -13 -310 -19 -129 -6 -264 -15 -300 -21 -227 -35 -414 -248 -475 -541 -18 -86 -19 -273 -1 -353 34 -153 96 -272 195 -374 45 -47 87 -79 124 -96 89 -41 257 -70 257 -45 0 6 -11 10 -24 10 -34 0 -160 53 -202 85 -19 15 -34 28 -32 30 2 2 28 -3 58 -11 30 -8 98 -24 150 -35 464 -98 513 -108 529 -109 8 0 -6 19 -31 43 -57 54 -131 159 -163 232 -128 289 -100 711 64 958 47 71 148 178 202 214 21 14 39 30 39 34 0 5 -1 8 -2 8 -2 -1 -37 -5 -78 -10z m-220 -144 c0 -3 -15 -24 -32 -48 -18 -23 -40 -52 -48 -64 -15 -21 -22 -22 -258 -25 -133 -2 -242 -1 -242 2 0 3 25 30 55 60 l56 55 212 11 c117 6 222 12 235 12 12 1 22 0 22 -3z m-110 -175 c0 -12 -35 -17 -235 -29 -205 -13 -251 -26 -313 -90 -48 -49 -50 -44 -12 44 26 60 43 69 134 76 141 10 426 10 426 -1z"/> <path d="M1810 3194 c-19 -14 -61 -33 -93 -42 -57 -17 -58 -18 -52 -47 3 -16 10 -86 16 -155 15 -173 1 -406 -41 -700 l-20 -135 27 -22 c123 -100 1094 -158 1578 -94 347 45 476 84 483 142 5 39 -43 74 -128 93 -55 13 -296 46 -333 46 -4 0 -5 -28 -2 -62 l5 -63 -21 65 c-41 130 -90 426 -96 580 l-6 146 -86 22 c-47 12 -162 40 -256 62 -93 22 -206 49 -250 60 -44 11 -159 34 -255 50 -96 17 -224 40 -285 51 -60 11 -119 22 -130 24 -11 2 -36 -7 -55 -21z m730 -331 c0 -104 5 -237 11 -298 16 -169 16 -421 -1 -477 -8 -27 -17 -48 -21 -48 -16 0 -55 186 -69 335 -20 220 -9 404 35 570 14 51 25 96 25 99 0 3 5 6 10 6 6 0 10 -69 10 -187z m260 128 c-8 -5 -42 -12 -75 -16 -33 -4 -73 -14 -90 -21 l-30 -15 35 31 c31 27 40 30 105 30 43 0 64 -4 55 -9z m-803 -117 c87 -56 78 -206 -16 -249 -37 -16 -40 -16 -85 4 -38 16 -51 29 -67 66 -18 41 -19 52 -9 95 22 93 104 132 177 84z"/> <path d="M1415 2289 c-118 -19 -179 -62 -173 -120 3 -31 7 -35 54 -51 28 -9 96 -20 151 -24 118 -8 110 -15 120 117 l6 89 -54 -1 c-30 -1 -76 -5 -104 -10z"/> <path d="M1075 2235 c-194 -29 -451 -103 -586 -171 -72 -36 -152 -107 -181 -160 -48 -90 -136 -471 -158 -686 -13 -126 -9 -138 67 -209 141 -132 469 -255 918 -344 786 -157 1764 -186 2524 -75 153 23 442 80 556 109 309 81 610 231 631 314 5 21 -40 287 -72 422 -7 34 -25 124 -39 200 -29 157 -47 206 -94 253 -43 43 -56 41 -26 -4 41 -60 27 -118 -38 -168 -44 -34 -190 -101 -297 -137 -271 -90 -744 -166 -1178 -189 -383 -19 -1023 -10 -1292 20 -401 44 -608 78 -822 135 -347 92 -537 185 -573 279 -10 25 -15 56 -11 69 7 29 41 74 66 87 17 9 18 7 13 -26 -5 -30 -1 -40 27 -69 41 -42 150 -96 285 -141 140 -46 235 -68 472 -109 795 -138 1796 -163 2548 -64 458 60 695 140 724 246 38 136 -192 253 -721 367 -11 3 -18 -2 -18 -10 0 -8 8 -21 18 -29 101 -86 95 -79 88 -118 -24 -127 -252 -223 -696 -294 -168 -26 -189 -28 -535 -27 -368 0 -545 13 -825 60 -162 27 -429 98 -500 132 -65 31 -145 89 -170 123 -34 47 -36 139 -2 186 35 50 40 49 -103 28z"/> <path d="M3791 2076 c-100 -107 -440 -184 -916 -207 -426 -22 -975 27 -1308 115 -51 14 -135 31 -189 39 -54 8 -114 23 -138 36 l-41 21 6 -22 c11 -34 22 -45 84 -78 97 -54 281 -110 441 -136 595 -96 942 -113 1366 -69 171 18 224 28 397 71 245 60 357 122 357 196 0 31 -14 58 -30 58 -4 0 -17 -11 -29 -24z"/> <path d="M31 1049 c-14 -40 -14 -122 -1 -170 77 -275 778 -508 1820 -604 1005 -92 1987 -20 2620 192 277 92 449 213 486 339 20 70 15 196 -10 240 l-17 29 6 -47 c11 -86 -28 -144 -150 -226 -77 -51 -126 -76 -228 -113 -396 -147 -842 -229 -1462 -269 -550 -35 -1385 13 -1900 111 -429 81 -759 189 -960 314 -115 72 -174 140 -175 203 0 41 -15 41 -29 1z"/> </g> </svg>